<?xml version="1.0"?>
<svg width="180" height="180" xmlns="http://www.w3.org/2000/svg" xmlns:svg="http://www.w3.org/2000/svg" version="1.1">
 <g class="layer" display="inline">
  <title>Layer 1</title>
  <path d="m87.59,0.15c1.43,-0.01 2.86,-0.03 4.29,-0.06c10.17,-0.21 18.8,0.93 28.51,4.36c0.73,0.25 1.46,0.51 2.22,0.77c12.96,4.84 24.28,12.18 33.78,22.23c0,0.66 0,1.32 0,2c0.59,0.24 1.18,0.49 1.79,0.74c10.83,6.18 17.28,26.15 20.51,37.58c0.23,0.89 0.46,1.77 0.7,2.68c0.17,0.57 0.35,1.14 0.53,1.73c1.05,5.07 0.69,10.41 0.71,15.58c0.01,2.15 0.04,4.3 0.07,6.45c0.09,11.52 -1.78,21.77 -6.56,32.3c-0.31,0.68 -0.61,1.35 -0.93,2.05c-10.53,22.83 -29.31,39.38 -52.7,48.26c-9.29,3.28 -18.04,3.97 -27.82,3.94c-2.1,0 -4.21,0.02 -6.31,0.05c-11.42,0.05 -21.63,-1.88 -32.06,-6.61c-0.67,-0.31 -1.34,-0.61 -2.04,-0.92c-8.3,-3.8 -16.24,-8.54 -22.89,-14.83c0,-0.66 0,-1.32 0,-2c-0.59,-0.26 -1.17,-0.51 -1.77,-0.77c-12.95,-7.18 -20.75,-26.39 -25.05,-39.78c-2.2,-7.74 -2.68,-15.26 -2.63,-23.26c0.01,-2.06 -0.02,-4.12 -0.05,-6.18c-0.05,-9.18 1.45,-17.31 4.5,-26.01c0.25,-0.74 0.51,-1.48 0.77,-2.23c3.92,-10.48 9.51,-20.61 17.23,-28.77c0.66,0 1.32,0 2,0c0.26,-0.64 0.53,-1.28 0.81,-1.94c1.19,-2.06 1.19,-2.06 4.19,-3.06c0.3,-0.62 0.61,-1.23 0.93,-1.86c4.5,-9 21.61,-15.34 30.84,-18.5c3.06,-0.95 6.12,-1.84 9.23,-2.64c0.57,-0.18 1.14,-0.35 1.73,-0.53c5.05,-1.05 10.33,-0.74 15.47,-0.77z" fill="#000000" id="svg_1" transform="matrix(1, 0, 0, 1, 0, 0)"/>
  <line fill="none" id="svg_4" stroke="#000000" stroke-width="5" x1="55.54" x2="19.94" y1="46.13" y2="55.73"/>
  <path d="m43.11,52.91c-5.08,12.15 -5.47,13.17 -5.81,14.14c-0.33,0.93 -0.62,1.83 -0.89,2.7c-0.26,0.84 -0.49,1.66 -0.71,2.47c-0.42,1.59 -0.61,2.38 -0.79,3.18c-0.19,0.81 -0.37,1.63 -0.53,2.47c-0.17,0.87 -0.34,1.77 -0.48,2.7c-0.31,1.99 -0.44,3.06 -0.56,4.18c-0.13,1.16 -0.24,2.36 -0.34,3.6c-0.1,1.27 -0.19,2.58 -0.24,3.91c-0.11,2.73 -0.12,4.12 -0.11,5.52c0.01,1.39 0.04,2.76 0.09,4.1c0.06,1.3 0.13,2.54 0.25,3.72c0.21,2.11 0.38,3.02 0.57,3.84c0.17,0.75 0.39,1.44 0.66,2.07c0.26,0.61 0.57,1.18 0.94,1.74c0.78,1.17 1.29,1.76 1.8,2.38c0.53,0.64 1.09,1.28 1.65,1.91c0.56,0.62 1.11,1.22 1.65,1.78c0.97,1.01 1.41,1.44 1.81,1.8c0.37,0.33 0.72,0.62 1.08,0.85c0.35,0.22 0.72,0.41 1.13,0.55c0.9,0.3 1.45,0.37 2.03,0.46c0.61,0.09 1.26,0.16 1.91,0.22c0.66,0.06 1.3,0.1 1.93,0.12c1.16,0.04 1.67,0.02 2.14,0c0.43,-0.02 0.82,-0.06 1.18,-0.12c0.34,-0.05 0.65,-0.13 0.95,-0.22c0.58,-0.18 0.86,-0.3 1.41,-0.59c0.56,-0.29 1.36,-0.78 2.01,-1.41c0.66,-0.64 1.04,-1.23 1.42,-1.95c0.71,-1.34 0.91,-1.92 1.14,-2.53c0.25,-0.65 0.48,-1.35 0.69,-2.11c0.22,-0.8 0.44,-1.64 0.67,-3.47c0.12,-0.98 0.18,-2.01 0.19,-3.08c0.01,-1.12 -0.03,-2.28 -0.12,-3.49c-0.09,-1.26 -0.21,-2.56 -0.63,-5.29c-0.22,-1.44 -0.51,-2.91 -0.82,-4.41c-0.32,-1.52 -0.68,-3.06 -1.06,-4.6c-0.39,-1.54 -0.79,-3.08 -1.69,-6.06c-0.44,-1.46 -0.92,-2.88 -1.41,-4.27c-0.49,-1.37 -0.99,-2.73 -1.53,-4.06c-0.53,-1.32 -1.07,-2.64 -2.24,-5.23c-0.59,-1.3 -1.21,-2.59 -1.84,-3.86c-0.63,-1.25 -1.27,-2.48 -1.92,-3.65c-0.63,-1.14 -1.24,-2.24 -2.55,-4.16c-0.6,-0.88 -1.21,-1.66 -1.8,-2.37c-0.55,-0.66 -1.1,-1.25 -1.62,-1.77c-0.48,-0.48 -0.94,-0.9 -1.76,-1.6c-0.35,-0.3 -0.66,-0.55 -0.95,-0.77c-0.27,-0.2 -0.52,-0.37 -0.78,-0.51c-0.25,-0.13 -0.51,-0.25 -1.09,-0.42c-0.32,-0.09 -0.67,-0.16 -1.04,-0.22c-0.38,-0.06 -0.76,-0.11 -1.15,-0.14c-0.39,-0.03 -0.77,-0.06 -1.48,-0.01c-0.33,0.02 -0.65,0.08 -0.95,0.17c-0.31,0.09 -0.62,0.23 -0.94,0.4c-0.35,0.19 -0.73,0.42 -1.59,1.02c-0.51,0.36 -1.06,0.76 -1.64,1.21c-0.62,0.48 -1.27,0.99 -1.93,1.54c-0.68,0.57 -1.39,1.15 -2.74,2.43c-0.68,0.65 -1.34,1.33 -1.99,2.03c-0.66,0.71 -1.31,1.44 -1.95,2.2c-0.66,0.77 -1.32,1.56 -2.65,3.22c-0.69,0.85 -1.37,1.73 -2.06,2.61c-0.68,0.87 -1.35,1.74 -1.99,2.58c-0.62,0.81 -1.21,1.59 -2.26,3.01c-0.46,0.62 -0.87,1.18 -1.23,1.69c-0.33,0.46 -0.63,0.88 -0.9,1.27c-0.25,0.35 -0.47,0.68 -0.88,1.27c-0.19,0.28 -0.38,0.54 -0.56,0.79c-0.17,0.24 -0.33,0.46 -0.48,0.68c-0.14,0.2 -0.27,0.37 -0.46,0.69c-0.08,0.13 -0.14,0.25 -0.19,0.36c-0.04,0.09 -0.07,0.17 -0.1,0.25l-0.02,0.07l-0.02,0.06l-0.52,0.63" fill="none" id="svg_7" stroke="null" stroke-dasharray="null" stroke-linecap="null" stroke-linejoin="null" stroke-opacity="null" stroke-width="null"/>
  <ellipse cx="90" cy="90.58" fill="#000000" id="svg_3" rx="84.81" ry="49.42" stroke="#ffffff" stroke-dasharray="null" stroke-linecap="null" stroke-linejoin="null" stroke-width="10"/>
  <path d="m59,42c8.07,-0.02 16.13,-0.04 24.2,-0.05c3.74,-0.01 7.49,-0.01 11.24,-0.03c3.61,-0.01 7.22,-0.01 10.83,-0.01c1.38,-0.01 2.76,-0.01 4.14,-0.02c1.93,0 3.86,0 5.79,0c1.09,-0.01 2.19,-0.01 3.33,-0.01c2.47,0.12 2.47,0.12 3.47,1.12c0.13,2.5 0.13,2.5 0,5c-2.33,2.33 -8.96,1.41 -12.3,1.52c-1.19,0.05 -1.19,0.05 -2.41,0.1c-0.72,0.03 -1.45,0.05 -2.2,0.08c-2.42,0.35 -4.04,0.97 -6.09,2.3c-1.13,3.4 -1.13,6.01 -1.15,9.6c0,0.66 0,1.33 -0.01,2.01c0,2.2 -0.01,4.4 -0.01,6.6c0,1.53 0,3.06 -0.01,4.59c0,3.21 -0.01,6.42 -0.01,9.63c0,4.11 -0.01,8.22 -0.03,12.33c-0.01,3.16 -0.01,6.32 -0.01,9.48c0,1.52 0,3.03 -0.01,4.54c-0.01,2.13 -0.01,4.25 0,6.37c0,1.2 -0.01,2.41 -0.01,3.65c0.25,3.18 0.78,5.37 2.25,8.2c4.1,2.48 8.65,2.42 13.31,2.63c0.74,0.03 1.48,0.07 2.25,0.11c1.81,0.1 3.63,0.18 5.44,0.26c0.38,1.66 0.71,3.32 1,5c-1,1 -1,1 -3.47,1.12c-1.1,0 -2.2,0 -3.33,-0.01c-1.87,0 -1.87,0 -3.77,0c-1.36,0 -2.73,-0.01 -4.09,-0.01c-1.39,0 -2.78,-0.01 -4.17,-0.01c-3.66,0 -7.32,-0.01 -10.98,-0.02c-3.73,-0.01 -7.47,-0.02 -11.2,-0.02c-7.33,-0.01 -14.66,-0.03 -21.99,-0.05c0,-1.98 0,-3.96 0,-6c1.63,-0.06 1.63,-0.06 3.29,-0.11c1.44,-0.07 2.89,-0.14 4.34,-0.2c0.71,-0.03 1.42,-0.05 2.16,-0.07c4.68,-0.24 8.21,-0.93 12.21,-3.62c1.32,-3.44 1.13,-6.98 1.13,-10.63c0,-0.66 0,-1.32 0,-1.99c0.01,-2.17 0.01,-4.34 0,-6.5c0,-1.51 0,-3.02 0.01,-4.53c0,-3.16 0,-6.32 -0.01,-9.48c-0.01,-4.05 0,-8.1 0,-12.15c0.01,-3.12 0.01,-6.23 0,-9.35c0,-1.49 0,-2.98 0.01,-4.48c0,-2.08 -0.01,-4.17 -0.01,-6.26c0,-1.18 0,-2.37 0,-3.59c-0.11,-2.56 -0.24,-4.65 -1.13,-7.04c-4.23,-2.55 -9,-2.43 -13.81,-2.62c-0.79,-0.04 -1.58,-0.08 -2.39,-0.12c-1.93,-0.1 -3.87,-0.18 -5.8,-0.26c0,-2.31 0,-4.62 0,-7z" fill="#ffffff" id="svg_2" transform="matrix(1, 0, 0, 1, 0, 0)"/>
 </g>

</svg>